<svg width="350" height="112" viewBox="0 0 350 112" fill="none" xmlns="http://www.w3.org/2000/svg">
<path fill-rule="evenodd" clip-rule="evenodd" d="M1 34.408L13.096 29.512L25 25L42.184 19.72L60.328 14.728L80.104 10.312L94.6 7.624L110.44 5.32L132.04 2.92L155.272 1.288L176.2 1L198.28 1.864L223.912 4.456L244.264 7.24L267.496 11.464L289.192 16.84L309.736 22.888L330.568 30.664L343.72 36.712L292.648 107.176L277.576 101.8L263.08 97.672L243.688 93.64L225.064 91.048L200.68 88.552L177.256 87.496L152.296 87.016L128.2 88.264L103.912 91.144L80.872 95.272L57.544 101.32L38.632 107.176L1 34.408Z" fill="#FEFEFE" stroke="#FEFEFE" stroke-width="0.288"/>
<path fill-rule="evenodd" clip-rule="evenodd" d="M327.592 70.504L329.128 77.32L348.424 88.072L343.72 94.12L326.824 80.392L319.72 80.776L297.448 110.92L293.224 107.656L344.584 37.288L349.192 39.784L327.592 70.504Z" fill="#FEFEFE" stroke="#373435" stroke-width="0.288"/>
<path fill-rule="evenodd" clip-rule="evenodd" d="M57.832 57.256L56.584 57.544L56.104 57.64L55.624 57.736L55.144 57.832L54.664 57.928L54.184 58.024L53.8 58.12H53.32L52.84 58.216H52.36L51.88 58.312H51.4H50.824L50.344 58.408H49.864H49.288H48.328L47.368 58.312H46.408L45.448 58.216L44.488 58.024L43.624 57.928L42.856 57.736L41.992 57.544L41.224 57.256L40.456 57.064L39.784 56.776L39.112 56.392L38.44 56.104L37.768 55.72L37.192 55.336L36.616 54.856L36.136 54.376L35.56 53.896L35.176 53.32L34.696 52.744L34.312 52.168L33.928 51.592L33.64 50.92L33.352 50.248L33.16 49.576L32.968 48.904L32.776 48.136L32.584 47.368L32.488 46.6V45.736L32.392 44.968V44.104L32.488 43.144V42.376L32.584 41.512L32.776 40.744L32.968 39.88L33.16 39.112L33.352 38.44L33.64 37.672L34.024 37L34.312 36.328L34.792 35.752L35.176 35.176L35.656 34.6L36.136 34.024L36.712 33.448L37.288 32.968L37.864 32.584L38.536 32.104L39.208 31.72L39.88 31.336L40.648 31.048L41.416 30.76L42.184 30.472L43.048 30.184L43.816 29.992L44.776 29.8L45.64 29.608L46.6 29.512L47.56 29.416L48.52 29.32H49.576H50.632H51.112H51.592H51.976H52.456H52.936L53.32 29.416H53.8L54.184 29.512H54.664L55.048 29.608H55.432L55.816 29.704L56.296 29.8L56.68 29.896H57.064L58.312 30.184L58.216 35.848L56.488 35.464L56.104 35.368L55.816 35.272H55.432L55.048 35.176L54.76 35.08H54.376L54.088 34.984H53.8H53.416L53.128 34.888H52.84H52.456H52.168H51.88H51.592H50.92H50.344H49.672L49.096 34.984L48.616 35.08L48.04 35.176L47.56 35.272L47.08 35.464L46.6 35.56L46.12 35.752L45.736 35.944L45.352 36.136L45.064 36.328L44.68 36.52L44.392 36.808L44.104 37L43.816 37.288L43.624 37.576L43.336 37.864L43.144 38.248L42.952 38.536L42.76 38.92L42.568 39.304L42.376 39.784L42.28 40.168L42.088 40.648L41.992 41.224L41.896 41.704V42.28L41.8 42.856V43.432L41.704 44.104V44.68V45.256L41.8 45.736V46.216L41.896 46.792L41.992 47.176L42.088 47.656L42.184 48.04L42.376 48.52L42.472 48.808L42.664 49.192L42.856 49.576L43.048 49.864L43.24 50.152L43.528 50.44L43.72 50.728L44.008 50.92L44.296 51.112L44.584 51.4L44.872 51.592L45.256 51.784L45.64 51.88L46.024 52.072L46.408 52.264L46.792 52.36L47.272 52.456L47.752 52.552L48.232 52.648H48.808L49.384 52.744H49.96H50.536H50.824H51.208H51.592H51.88L52.264 52.648H52.648L52.936 52.552H53.32L53.704 52.456H54.088L54.472 52.36L54.856 52.264L55.24 52.168L55.624 52.072L56.104 51.976L57.928 51.4L57.832 57.256ZM63.304 58.024L63.784 29.608H73.192L72.712 52.552H87.976L87.88 58.024H63.304ZM92.296 58.024L92.776 29.608H116.008L115.912 35.08H101.992L101.896 40.552H114.664L114.568 45.928H101.8L101.704 52.552H115.624L115.528 58.024H92.296ZM135.208 40.456L131.944 47.752H138.088L135.208 40.456ZM117.448 58.024L131.272 29.608H139.336L152.2 58.024H142.6L140.2 52.936H129.64L127.048 58.024H117.448ZM165.64 41.032H166.696H167.752L168.616 40.936H169.48L170.248 40.744L170.92 40.648L171.496 40.552L171.88 40.36L172.264 40.168L172.552 39.976L172.84 39.784L173.032 39.496L173.224 39.208L173.32 38.92L173.416 38.536L173.512 38.056L173.608 37.576L173.512 37.192V36.904L173.416 36.616L173.32 36.328L173.224 36.136L173.032 35.944L172.84 35.848L172.552 35.656L172.168 35.56L171.688 35.368L171.112 35.272L170.44 35.176L169.672 35.08L168.808 34.984H167.752H166.696H165.832L165.64 41.032ZM167.272 29.608L168.328 29.704H169.288H170.248L171.112 29.8L171.976 29.896H172.84L173.608 30.088L174.376 30.184L175.144 30.28L175.816 30.376L176.488 30.568L177.16 30.76L177.736 30.856L178.216 31.144L178.792 31.336L179.752 31.816L180.616 32.392L181.288 33.064L181.96 33.832L182.44 34.696L182.728 35.56L182.92 36.616V37.576V38.44L182.728 39.208L182.536 39.976L182.152 40.744L181.768 41.416L181.192 41.992L180.616 42.568L179.944 43.048L179.56 43.336L179.176 43.528L178.696 43.72L178.312 43.912L177.832 44.008L177.448 44.2L176.968 44.392L176.488 44.488L175.912 44.584L175.432 44.776L174.856 44.872H174.28V44.968L186.664 58.024H176.008L165.544 46.696L165.352 58.024H156.04L156.52 29.608H166.216H167.272ZM204.904 58.024H197.416L185.416 29.608H195.016L201.352 45.64L208.264 29.608H217.864L204.904 58.024ZM221.416 58.024L221.896 29.608H231.304L230.728 58.024H221.416ZM239.272 58.024L239.752 29.608H262.984L262.888 35.08H248.968L248.872 40.552H261.544V45.928H248.776L248.68 52.552H262.6L262.504 58.024H239.272ZM274.696 58.024L265.576 29.608H274.984L279.112 44.968L284.584 29.608H291.976L296.968 44.968L301.576 29.608H310.888L300.904 58.024H293.512L288.04 41.704L282.088 58.024H274.696Z" fill="#1F6DE2"/>
<path d="M37.384 64.072H41.32L42.472 71.272C42.568 71.944 42.664 72.616 42.76 73.48C42.76 74.248 42.856 75.112 42.856 76.072L45.832 64.072H49.096L51.208 76.072C51.208 75.4 51.304 74.728 51.4 73.96C51.496 73.192 51.688 72.424 51.784 71.752L53.512 64.072H57.352L52.936 80.008H49.48L47.656 71.272C47.56 70.792 47.56 70.312 47.464 69.64C47.464 69.064 47.368 68.392 47.368 67.624C47.272 68.488 47.176 69.16 47.08 69.736C46.888 70.408 46.792 70.888 46.696 71.176L44.296 80.008H40.744L37.384 64.072Z" fill="#373435"/>
<path d="M58.504 80.008L59.08 64.072H63.016L62.536 80.008H58.504Z" fill="#373435"/>
<path d="M65.8 80.008L66.28 64.072H70.312L73.96 72.616C74.056 72.904 74.152 73.384 74.344 73.96C74.536 74.44 74.728 75.112 75.016 75.88C74.824 74.824 74.728 73.768 74.632 72.808C74.632 71.944 74.536 70.984 74.632 70.216L74.824 64.072H78.472L77.896 80.008H74.248L70.312 71.08C70.216 70.984 70.024 70.408 69.832 69.448C69.64 69.064 69.544 68.68 69.448 68.488C69.544 69.064 69.64 69.736 69.64 70.504C69.64 71.272 69.64 72.232 69.544 73.288L69.352 80.008H65.8Z" fill="#373435"/>
<path d="M84.904 77.032H85.192C86.632 77.032 87.688 76.648 88.456 75.784C89.224 74.92 89.608 73.672 89.704 72.136C89.8 70.408 89.416 69.064 88.744 68.296C88.072 67.432 87.016 67.048 85.576 67.048H85.288L84.904 77.032ZM80.968 80.008L81.544 64.072H84.904C87.88 64.072 90.088 64.744 91.528 66.088C92.968 67.432 93.64 69.352 93.544 72.04C93.544 73.672 93.256 75.016 92.584 76.072C92.008 77.224 91.144 78.088 89.992 78.76C89.224 79.24 88.456 79.528 87.592 79.72C86.728 79.912 85.48 80.008 83.944 80.008H80.968Z" fill="#373435"/>
<path d="M101.992 77.128C103.048 77.128 103.816 76.744 104.296 75.88C104.872 75.016 105.16 73.768 105.16 72.04C105.256 70.312 105.064 69.064 104.584 68.2C104.104 67.336 103.432 66.952 102.376 66.952C101.416 66.952 100.648 67.336 100.072 68.2C99.592 69.064 99.304 70.312 99.208 72.04C99.208 73.768 99.4 75.016 99.88 75.88C100.264 76.744 101.032 77.128 101.992 77.128ZM109.096 72.232C109 74.728 108.328 76.648 106.984 77.992C105.736 79.432 104.008 80.2 101.896 80.2C99.784 80.2 98.056 79.432 96.904 77.992C95.752 76.552 95.272 74.632 95.368 72.04C95.464 69.544 96.136 67.528 97.384 66.088C98.632 64.648 100.36 63.88 102.472 63.88C104.68 63.88 106.312 64.648 107.464 66.088C108.616 67.624 109.192 69.64 109.096 72.232Z" fill="#373435"/>
<path d="M110.248 64.072H114.184L115.336 71.272C115.528 71.944 115.528 72.616 115.624 73.48C115.72 74.248 115.72 75.112 115.816 76.072L118.792 64.072H122.056L124.168 76.072C124.168 75.4 124.264 74.728 124.36 73.96C124.456 73.192 124.552 72.424 124.744 71.752L126.472 64.072H130.312L125.8 80.008H122.344L120.616 71.272C120.52 70.792 120.424 70.312 120.424 69.64C120.328 69.064 120.328 68.392 120.328 67.624C120.232 68.488 120.04 69.16 119.944 69.736C119.848 70.408 119.752 70.888 119.656 71.176L117.16 80.008H113.704L110.248 64.072Z" fill="#373435"/>
<path d="M127.816 82.984L130.216 76.456H134.056L130.504 82.984H127.816Z" fill="#373435"/>
<path d="M145.576 70.696H146.056C147.016 70.696 147.784 70.504 148.264 70.216C148.744 69.928 148.936 69.448 149.032 68.776C149.032 68.008 148.84 67.528 148.36 67.24C147.88 66.856 147.112 66.664 146.152 66.664H145.768L145.576 70.696ZM145.384 77.128C145.48 77.128 145.576 77.128 145.672 77.128C145.768 77.128 145.864 77.128 145.96 77.128C146.92 77.128 147.688 77.032 148.168 76.648C148.552 76.36 148.84 75.88 148.84 75.112C148.84 74.344 148.648 73.864 148.264 73.48C147.784 73.192 147.016 73 145.96 73H145.576L145.384 77.128ZM141.544 80.008L142.024 64.072H145.864C148.456 64.072 150.184 64.456 151.24 65.128C152.296 65.704 152.776 66.856 152.68 68.296C152.68 69.16 152.488 69.928 152.008 70.504C151.624 70.984 150.952 71.464 150.088 71.848C151.048 72.04 151.72 72.52 152.2 73.096C152.584 73.672 152.776 74.44 152.776 75.4C152.776 76.168 152.584 76.84 152.296 77.416C151.912 77.992 151.528 78.472 150.952 78.856C150.376 79.24 149.704 79.528 148.84 79.72C148.072 79.912 146.824 80.008 145.096 80.008H141.544Z" fill="#373435"/>
<path d="M154.888 80.008L155.464 64.072H159.304L158.824 76.84H163.336L163.24 80.008H154.888Z" fill="#373435"/>
<path d="M164.872 80.008L165.448 64.072H169.48L168.904 80.008H164.872Z" fill="#373435"/>
<path d="M172.168 80.008L172.744 64.072H176.68L180.328 72.616C180.424 72.904 180.52 73.384 180.712 73.96C180.904 74.44 181.096 75.112 181.384 75.88C181.192 74.824 181.096 73.768 181 72.808C181 71.944 181 70.984 181 70.216L181.192 64.072H184.84L184.264 80.008H180.616L176.68 71.08C176.584 70.984 176.392 70.408 176.2 69.448C176.008 69.064 175.912 68.68 175.912 68.488C175.912 69.064 176.008 69.736 176.008 70.504C176.008 71.272 176.008 72.232 176.008 73.288L175.72 80.008H172.168Z" fill="#373435"/>
<path d="M191.272 77.032H191.656C193 77.032 194.056 76.648 194.824 75.784C195.592 74.92 195.976 73.672 196.072 72.136C196.168 70.408 195.784 69.064 195.112 68.296C194.44 67.432 193.384 67.048 191.944 67.048H191.656L191.272 77.032ZM187.336 80.008L187.912 64.072H191.272C194.248 64.072 196.552 64.744 197.992 66.088C199.336 67.432 200.104 69.352 200.008 72.04C199.912 73.672 199.624 75.016 198.952 76.072C198.376 77.224 197.512 78.088 196.36 78.76C195.688 79.24 194.824 79.528 193.96 79.72C193.096 79.912 191.848 80.008 190.312 80.008H187.336Z" fill="#373435"/>
<path d="M214.984 76.744L212.584 73.672C212.104 73.864 211.72 74.152 211.528 74.44C211.24 74.632 211.144 75.016 211.144 75.304C211.144 75.88 211.336 76.36 211.72 76.648C212.104 77.032 212.584 77.224 213.16 77.224C213.448 77.224 213.736 77.224 214.024 77.128C214.312 77.032 214.6 76.936 214.984 76.744ZM213.544 69.736L213.928 69.448C214.312 69.256 214.504 68.968 214.696 68.68C214.888 68.392 215.08 68.104 215.08 67.816C215.08 67.528 214.984 67.24 214.792 67.048C214.6 66.856 214.312 66.76 214.024 66.76C213.64 66.76 213.256 66.856 213.064 67.048C212.776 67.336 212.68 67.624 212.584 67.912C212.584 68.104 212.68 68.296 212.68 68.488C212.776 68.68 212.872 68.872 212.968 68.968L213.544 69.736ZM216.52 78.856C215.944 79.24 215.368 79.528 214.792 79.816C214.216 80.008 213.544 80.104 212.872 80.104C211.336 80.104 210.088 79.624 209.032 78.76C208.072 77.8 207.592 76.744 207.688 75.4C207.688 74.632 207.976 73.864 208.456 73.096C209.032 72.424 209.8 71.752 210.856 71.272C210.376 70.504 209.992 69.832 209.8 69.352C209.512 68.872 209.416 68.392 209.512 67.912C209.512 66.856 209.992 65.992 210.856 65.416C211.72 64.744 212.776 64.456 214.216 64.456C215.464 64.456 216.52 64.744 217.288 65.32C218.056 65.992 218.44 66.76 218.344 67.72C218.344 68.488 218.056 69.16 217.48 69.928C216.904 70.6 216.136 71.272 215.08 71.848L217.48 75.016L219.496 73.288L221.32 75.592L219.112 77.224L221.128 80.008H217.288L216.52 78.856Z" fill="#373435"/>
<path d="M228.52 79.432L228.712 76.168C229.192 76.456 229.576 76.744 230.056 76.936C230.536 77.128 231.016 77.128 231.496 77.128C232.168 77.128 232.744 77.032 233.128 76.744C233.512 76.456 233.704 76.072 233.704 75.592C233.704 75.016 233.224 74.344 232.264 73.672C231.976 73.48 231.784 73.288 231.592 73.192C230.44 72.328 229.672 71.56 229.192 70.888C228.808 70.12 228.616 69.352 228.616 68.488C228.712 67.144 229.192 65.992 230.152 65.224C231.208 64.36 232.456 63.88 233.992 63.88C234.472 63.88 235.048 63.976 235.528 64.072C236.104 64.264 236.68 64.456 237.256 64.744L237.16 67.528C236.488 67.24 235.912 67.048 235.528 66.952C235.144 66.856 234.856 66.76 234.568 66.76C233.992 66.76 233.512 66.952 233.128 67.24C232.744 67.528 232.552 67.912 232.552 68.296C232.552 68.776 232.648 69.16 232.936 69.448C233.224 69.832 233.8 70.312 234.76 71.08C236.008 71.944 236.872 72.712 237.16 73.288C237.544 73.96 237.736 74.632 237.64 75.496C237.64 76.936 237.064 78.088 236.008 78.952C235.048 79.72 233.608 80.2 231.88 80.2C231.208 80.2 230.632 80.104 230.056 80.008C229.48 79.912 229 79.72 228.52 79.432Z" fill="#373435"/>
<path d="M249.736 79.816C249.352 79.912 248.968 80.008 248.584 80.104C248.2 80.104 247.816 80.2 247.432 80.2C244.936 80.2 242.92 79.432 241.48 77.992C239.944 76.456 239.176 74.536 239.272 72.232C239.368 69.736 240.232 67.72 241.768 66.184C243.4 64.648 245.416 63.88 247.816 63.88C248.296 63.88 248.776 63.976 249.16 63.976C249.544 64.072 249.928 64.168 250.312 64.264L250.216 67.24C249.832 67.144 249.448 67.048 249.064 66.952C248.776 66.952 248.392 66.856 248.104 66.856C246.76 66.856 245.704 67.336 244.84 68.296C243.976 69.256 243.496 70.504 243.496 72.04C243.4 73.48 243.784 74.728 244.648 75.592C245.416 76.552 246.472 77.032 247.816 77.032C248.104 77.032 248.488 76.936 248.776 76.936C249.16 76.84 249.544 76.744 249.832 76.648L249.736 79.816Z" fill="#373435"/>
<path d="M256.264 70.984C256.264 70.984 256.36 70.984 256.456 70.984C256.552 70.984 256.648 70.984 256.648 70.984C257.512 70.984 258.184 70.792 258.664 70.408C259.048 70.024 259.336 69.448 259.336 68.776C259.336 68.008 259.144 67.432 258.76 67.048C258.376 66.76 257.8 66.568 256.936 66.568C256.84 66.568 256.648 66.568 256.648 66.568C256.552 66.568 256.456 66.568 256.456 66.568L256.264 70.984ZM252.136 80.008L252.712 64.072H256.744C259.048 64.072 260.584 64.456 261.544 65.224C262.6 65.896 262.984 67.048 262.984 68.584C262.888 69.736 262.6 70.6 262.12 71.272C261.544 71.944 260.776 72.424 259.72 72.712L263.272 80.008H259.144L256.168 73.384L255.976 80.008H252.136Z" fill="#373435"/>
<path d="M264.712 80.008L265.288 64.072H273.544L273.448 67.048H268.936L268.84 70.216H272.872L272.776 73.192H268.744L268.648 76.84H273.064L272.968 80.008H264.712Z" fill="#373435"/>
<path d="M275.56 80.008L276.136 64.072H284.392L284.296 67.048H279.88L279.688 70.216H283.72L283.624 73.192H279.592L279.496 76.84H283.912L283.816 80.008H275.56Z" fill="#373435"/>
<path d="M286.504 80.008L286.984 64.072H291.016L294.664 72.616C294.76 72.904 294.856 73.384 295.048 73.96C295.24 74.44 295.432 75.112 295.72 75.88C295.528 74.824 295.432 73.768 295.336 72.808C295.336 71.944 295.24 70.984 295.336 70.216L295.528 64.072H299.176L298.6 80.008H294.952L291.016 71.08C290.92 70.984 290.728 70.408 290.536 69.448C290.344 69.064 290.248 68.68 290.152 68.488C290.248 69.064 290.344 69.736 290.344 70.504C290.344 71.272 290.344 72.232 290.248 73.288L290.056 80.008H286.504Z" fill="#373435"/>
<path d="M343.526 36.6722L292.273 107.216L293.49 108.101L344.744 37.5569L343.526 36.6722Z" fill="#373435" stroke="#373435" stroke-width="0.103247"/>
</svg>
